<svg id="Capa_1" data-name="Capa 1" xmlns="http://www.w3.org/2000/svg" viewBox="0 0 370 200"><defs><style>.cls-1{fill:#e96d50;}.cls-2{fill:#fff;}</style></defs><rect class="cls-1" width="370" height="200"/><path class="cls-2" d="M108.16,92.24h-6.38l-2.54-6.6H87.62l-2.4,6.6H79L90.32,63.18h6.2Zm-10.8-11.5L93.35,70,89.43,80.74Z"/><path class="cls-2" d="M109.6,71.19h5.13v2.87a8.29,8.29,0,0,1,6.57-3.35,7.17,7.17,0,0,1,3.51.83,6.42,6.42,0,0,1,2.43,2.52,9.94,9.94,0,0,1,3-2.52,7.39,7.39,0,0,1,3.43-.83,7.61,7.61,0,0,1,3.92.94,5.78,5.78,0,0,1,2.4,2.77,12,12,0,0,1,.58,4.36V92.24H135v-12q0-3.13-.57-4A2.65,2.65,0,0,0,132,75a3.78,3.78,0,0,0-2.2.72,4,4,0,0,0-1.49,2.09,15.24,15.24,0,0,0-.45,4.35V92.24h-5.57V80.7a15.78,15.78,0,0,0-.3-4,2.55,2.55,0,0,0-.92-1.33,2.93,2.93,0,0,0-1.7-.44,4,4,0,0,0-2.32.7,3.79,3.79,0,0,0-1.47,2,14.75,14.75,0,0,0-.45,4.34V92.24H109.6Z"/><path class="cls-2" d="M157.09,85.54l5.55.93a9.05,9.05,0,0,1-3.38,4.65,10,10,0,0,1-5.78,1.59q-5.49,0-8.13-3.58a12.13,12.13,0,0,1-2.08-7.26q0-5.24,2.74-8.2a9,9,0,0,1,6.92-3,9.33,9.33,0,0,1,7.41,3.1q2.72,3.1,2.6,9.51H149a5.61,5.61,0,0,0,1.35,3.85,4.21,4.21,0,0,0,3.21,1.38,3.44,3.44,0,0,0,2.2-.71A4.36,4.36,0,0,0,157.09,85.54Zm.32-5.63a5.39,5.39,0,0,0-1.25-3.68,3.83,3.83,0,0,0-2.9-1.26,3.89,3.89,0,0,0-3,1.33,5.18,5.18,0,0,0-1.17,3.61Z"/><path class="cls-2" d="M171.59,92.24H166v-21h5.18v3a9.11,9.11,0,0,1,2.38-2.8,4.39,4.39,0,0,1,2.41-.67,7.09,7.09,0,0,1,3.67,1.05l-1.72,4.86a4.87,4.87,0,0,0-2.62-.91,3.08,3.08,0,0,0-2,.64,4.43,4.43,0,0,0-1.28,2.33,33.05,33.05,0,0,0-.47,7.06Z"/><path class="cls-2" d="M180.84,68.33V63.18h5.57v5.15Zm0,23.91v-21h5.57v21Z"/><path class="cls-2" d="M190.75,71.19h5.19v3.09a7.78,7.78,0,0,1,2.73-2.58,7.57,7.57,0,0,1,3.83-1,8.05,8.05,0,0,1,6.23,2.87q2.55,2.88,2.55,8,0,5.28-2.57,8.2a8,8,0,0,1-6.25,2.92A7.11,7.11,0,0,1,199.3,92a10.37,10.37,0,0,1-3-2.38v10.61h-5.57Zm5.51,10.17a8.16,8.16,0,0,0,1.4,5.24,4.31,4.31,0,0,0,3.43,1.69,4,4,0,0,0,3.23-1.55q1.29-1.56,1.29-5.11a7.64,7.64,0,0,0-1.32-4.91,4.14,4.14,0,0,0-3.3-1.61,4.28,4.28,0,0,0-3.39,1.58A7.05,7.05,0,0,0,196.26,81.36Z"/><path class="cls-2" d="M213.2,81.41A11.29,11.29,0,0,1,214.57,76a9.36,9.36,0,0,1,3.87-4,11.52,11.52,0,0,1,5.6-1.37,10.49,10.49,0,0,1,7.83,3.1,10.7,10.7,0,0,1,3,7.84,10.81,10.81,0,0,1-3.08,7.92,10.39,10.39,0,0,1-7.76,3.14,12.24,12.24,0,0,1-5.52-1.3,9,9,0,0,1-4-3.84A12.69,12.69,0,0,1,213.2,81.41Zm5.71.3a7,7,0,0,0,1.48,4.8,4.86,4.86,0,0,0,7.33,0,7.09,7.09,0,0,0,1.48-4.84,7,7,0,0,0-1.48-4.76,4.88,4.88,0,0,0-7.33,0A7,7,0,0,0,218.91,81.71Z"/><path class="cls-2" d="M238.07,92.24V63.18h5.57V92.24Z"/><path class="cls-2" d="M102.13,125.54l4.07,1a13.69,13.69,0,0,1-4.6,7.64,12.68,12.68,0,0,1-8.12,2.63,14.6,14.6,0,0,1-8.08-2A12.63,12.63,0,0,1,80.67,129,20.91,20.91,0,0,1,79,120.72a18.12,18.12,0,0,1,1.84-8.37,12.6,12.6,0,0,1,5.21-5.43,15.22,15.22,0,0,1,7.45-1.85,12.64,12.64,0,0,1,7.76,2.34,12.22,12.22,0,0,1,4.37,6.6l-4,.95a9.45,9.45,0,0,0-3.1-4.89,8.25,8.25,0,0,0-5.11-1.53,10,10,0,0,0-5.92,1.7,8.91,8.91,0,0,0-3.34,4.56,18.43,18.43,0,0,0-1,5.9,18.77,18.77,0,0,0,1.15,6.84,8.5,8.5,0,0,0,3.55,4.37,10,10,0,0,0,5.22,1.44,8.71,8.71,0,0,0,5.78-2A10,10,0,0,0,102.13,125.54Z"/><path class="cls-2" d="M109.44,136.31V105.59h3.77v11a8.42,8.42,0,0,1,6.66-3.06,9,9,0,0,1,4.3,1,5.75,5.75,0,0,1,2.61,2.69,12.49,12.49,0,0,1,.78,5v14.1h-3.77v-14.1a5.82,5.82,0,0,0-1.23-4.12,4.53,4.53,0,0,0-3.46-1.29,6.14,6.14,0,0,0-3.16.87,4.9,4.9,0,0,0-2.1,2.36,10.78,10.78,0,0,0-.63,4.1v12.18Z"/><path class="cls-2" d="M147.25,129.14l3.89.48a9.45,9.45,0,0,1-3.41,5.3,10.26,10.26,0,0,1-6.37,1.89,10.14,10.14,0,0,1-7.74-3q-2.87-3-2.86-8.43,0-5.61,2.89-8.72a9.82,9.82,0,0,1,7.5-3.1,9.48,9.48,0,0,1,7.29,3c1.89,2,2.83,4.87,2.83,8.55,0,.22,0,.56,0,1h-16.6a8.57,8.57,0,0,0,2.08,5.62,6.16,6.16,0,0,0,4.65,2,5.82,5.82,0,0,0,3.54-1.09A7.31,7.31,0,0,0,147.25,129.14ZM134.86,123h12.43a7.51,7.51,0,0,0-1.43-4.21,5.77,5.77,0,0,0-4.67-2.18,6,6,0,0,0-4.37,1.74A6.91,6.91,0,0,0,134.86,123Z"/><path class="cls-2" d="M154.59,136.31V114.05H158v3.13a7.84,7.84,0,0,1,6.74-3.63,7.3,7.3,0,0,1,4.06,1,5.53,5.53,0,0,1,2.23,2.87,8,8,0,0,1,6.87-3.9,6.74,6.74,0,0,1,5.09,1.84q1.78,1.83,1.78,5.64v15.28H181v-14a10.49,10.49,0,0,0-.36-3.26,3.15,3.15,0,0,0-1.34-1.6,4.09,4.09,0,0,0-2.26-.61,5.29,5.29,0,0,0-3.9,1.56q-1.55,1.56-1.55,5v12.93h-3.77V121.85a6.31,6.31,0,0,0-.92-3.77,3.48,3.48,0,0,0-3-1.26,5.46,5.46,0,0,0-2.94.84,4.77,4.77,0,0,0-2,2.45,14,14,0,0,0-.61,4.65v11.55Z"/><path class="cls-2" d="M189.07,109.93v-4.34h3.77v4.34Zm0,26.38V114.05h3.77v22.26Z"/><path class="cls-2" d="M211.82,128.16l3.7.48a9.61,9.61,0,0,1-3.11,6,9,9,0,0,1-6.15,2.17,9.56,9.56,0,0,1-7.34-3q-2.78-3-2.78-8.56a15.39,15.39,0,0,1,1.2-6.3A8.34,8.34,0,0,1,201,114.9a10.81,10.81,0,0,1,5.31-1.35,9.17,9.17,0,0,1,5.93,1.84,8.4,8.4,0,0,1,3,5.2l-3.67.57a6.15,6.15,0,0,0-1.85-3.38,4.83,4.83,0,0,0-3.22-1.13,5.84,5.84,0,0,0-4.63,2q-1.78,2-1.78,6.46t1.72,6.52a5.59,5.59,0,0,0,4.48,2,5.32,5.32,0,0,0,3.71-1.36A6.81,6.81,0,0,0,211.82,128.16Z"/><path class="cls-2" d="M232,133.56a14,14,0,0,1-4,2.52,11.85,11.85,0,0,1-4.16.73,8.14,8.14,0,0,1-5.64-1.79,5.93,5.93,0,0,1-2-4.58,6.23,6.23,0,0,1,2.7-5.16,9.3,9.3,0,0,1,2.71-1.23,25.78,25.78,0,0,1,3.35-.57,33.69,33.69,0,0,0,6.73-1.3c0-.51,0-.84,0-1a4.18,4.18,0,0,0-1.07-3.25,6.3,6.3,0,0,0-4.29-1.28,6.58,6.58,0,0,0-3.93.94,5.69,5.69,0,0,0-1.88,3.3l-3.69-.51a9.15,9.15,0,0,1,1.66-3.82,7.25,7.25,0,0,1,3.33-2.24,14.71,14.71,0,0,1,5.05-.79,13.54,13.54,0,0,1,4.63.67,6.1,6.1,0,0,1,2.62,1.69,5.87,5.87,0,0,1,1.17,2.57,20.62,20.62,0,0,1,.19,3.47v5a53.39,53.39,0,0,0,.24,6.65,8.38,8.38,0,0,0,1,2.68h-3.94A8,8,0,0,1,232,133.56Zm-.31-8.42a27.57,27.57,0,0,1-6.16,1.42,14.47,14.47,0,0,0-3.29.76,3.35,3.35,0,0,0-1.49,1.22,3.35,3.35,0,0,0,.62,4.31,4.92,4.92,0,0,0,3.34,1,7.75,7.75,0,0,0,3.88-.95,5.81,5.81,0,0,0,2.49-2.61,9,9,0,0,0,.61-3.77Z"/><path class="cls-2" d="M240,136.31V105.59h3.77v30.72Z"/><path class="cls-2" d="M266.88,90.23a54,54,0,0,1,0,19.53c-.15.82-.32,1.63-.51,2.44l2-.5c.05-.58.1-1.16.14-1.74.21-3.33.3-6.65.31-10s-.1-6.64-.31-10c0-.58-.09-1.16-.14-1.74-.65-.18-1.3-.35-2-.51C266.56,88.59,266.73,89.41,266.88,90.23Z"/><path class="cls-2" d="M265.77,114.52c-.45,1.56-1,3.1-1.56,4.59a43.7,43.7,0,0,1-1.95,4.34,30.86,30.86,0,0,1-2.39,3.91,14.38,14.38,0,0,1-2.82,3,8.29,8.29,0,0,1-.75.51l-.37.19c-.12.07-.24.09-.36.15a3.76,3.76,0,0,1-1.4.28h0v5.32h0a9.06,9.06,0,0,0,3.42-.73,5.28,5.28,0,0,0,.76-.36l.71-.41a13.24,13.24,0,0,0,1.25-.95,13.65,13.65,0,0,0,2-2.15c.28-.38.57-.76.81-1.15s.49-.79.72-1.18a33.39,33.39,0,0,0,3.38-9.9c.4-2,.67-4,.88-6-.75.08-1.51.15-2.26.21Z"/><path class="cls-2" d="M254.17,68.49a3.76,3.76,0,0,1,1.4.28,2.83,2.83,0,0,1,.36.16l.37.18c.25.17.5.31.75.51a14.38,14.38,0,0,1,2.82,3,30.86,30.86,0,0,1,2.39,3.91,43.7,43.7,0,0,1,1.95,4.34c.58,1.49,1.11,3,1.56,4.59,0,.12.07.25.1.38l2.26.2c-.21-2-.48-4-.88-6a33.33,33.33,0,0,0-3.38-9.89c-.23-.4-.46-.8-.72-1.19s-.53-.77-.81-1.15a13.65,13.65,0,0,0-2-2.15,15.19,15.19,0,0,0-1.25-1l-.71-.41a5.28,5.28,0,0,0-.76-.36,9.06,9.06,0,0,0-3.42-.73h0v5.32Z"/><path class="cls-2" d="M254.17,113.6h0v1h0c3.32,0,6.64-.09,10-.31l1.73-.13c.18-.65.35-1.3.5-2q-1.2.28-2.43.51A54.13,54.13,0,0,1,254.17,113.6Z"/><path class="cls-2" d="M254.17,85.41h0v1h0a55.24,55.24,0,0,1,9.78.89c.81.15,1.62.32,2.42.51-.15-.65-.32-1.29-.5-1.93l-1.73-.13C260.81,85.5,257.49,85.42,254.17,85.41Z"/><path class="cls-2" d="M290.27,96.58a6.61,6.61,0,0,0-.36-.76l-.41-.7a13.82,13.82,0,0,0-.95-1.26,13.58,13.58,0,0,0-2.15-2c-.38-.29-.76-.58-1.15-.82s-.79-.49-1.19-.71a33.33,33.33,0,0,0-9.89-3.38c-2-.4-4-.67-6-.88.08.75.14,1.49.2,2.24l.37.1c1.57.45,3.1,1,4.59,1.56a41.57,41.57,0,0,1,4.34,2,30.86,30.86,0,0,1,3.91,2.39,14.38,14.38,0,0,1,3,2.82,8.29,8.29,0,0,1,.51.75l.18.37a2.83,2.83,0,0,1,.16.36,3.62,3.62,0,0,1,0,2.79,2.83,2.83,0,0,1-.16.36l-.18.37c-.17.25-.31.5-.51.75a14.38,14.38,0,0,1-3,2.82,30.86,30.86,0,0,1-3.91,2.39,43.76,43.76,0,0,1-4.34,2c-1.49.58-3,1.1-4.59,1.56l-.37.1c-.06.74-.12,1.49-.2,2.24,2-.2,4-.47,6-.87a33.62,33.62,0,0,0,9.89-3.38c.4-.23.8-.46,1.19-.72s.77-.53,1.15-.81a13.65,13.65,0,0,0,2.15-2,15.19,15.19,0,0,0,.95-1.25l.41-.71a5.28,5.28,0,0,0,.36-.76,8.35,8.35,0,0,0,0-6.83Z"/><path class="cls-2" d="M266.37,87.78c.66.16,1.31.33,2,.51-.06-.75-.12-1.49-.2-2.24l-2.26-.2C266.05,86.49,266.22,87.13,266.37,87.78Z"/><path class="cls-2" d="M266.37,112.2c-.15.65-.32,1.3-.5,2,.75-.06,1.51-.13,2.26-.21.08-.75.14-1.5.2-2.24Z"/><path class="cls-2" d="M254.17,92.59h0c-2.08,0-3.77,3.32-3.77,7.41s1.69,7.4,3.77,7.4h0c2.09,0,3.78-3.31,3.78-7.4S256.26,92.59,254.17,92.59Z"/></svg>