<svg id="Capa_1" data-name="Capa 1" xmlns="http://www.w3.org/2000/svg" viewBox="0 0 370 200"><defs><style>.cls-1{fill:#f4afbe;}</style></defs><rect class="cls-1" width="370" height="200"/><path d="M52.22,125.69l4.07-1.38a1.51,1.51,0,0,0,1.11-1.41c0-1.05,0-2.21.05-3.49s0-2.7,0-4.25V83.71c0-1.32,0-2.5,0-3.57s0-2-.05-2.87a1.57,1.57,0,0,0-1-1.54l-4.14-1.46L52.22,73c2.87.09,5.67.14,8.32.14S66,73.13,68.89,73l.1,1.24-4.1,1.38a1.43,1.43,0,0,0-1.07,1.42c0,.91,0,1.9,0,3s0,2.24,0,3.51v31.6c0,1.55,0,3,0,4.23s0,2.42,0,3.45a1.64,1.64,0,0,0,1.39,1.55l3.73,1.3,0,1.24c-2.87-.08-5.66-.11-8.31-.11s-5.52,0-8.35.11Z"/><path d="M68.66,73.29l.07.81-3.9,1.31a1.7,1.7,0,0,0-1.26,1.66c0,.91,0,1.9,0,3s0,2.25,0,3.52v31.6c0,1.55,0,3,0,4.23s0,2.42,0,3.47a1.85,1.85,0,0,0,1.54,1.76l3.59,1.25,0,.8c-2.78-.06-5.49-.1-8.06-.1s-5.37,0-8.13.11l-.06-.82,3.87-1.31a1.73,1.73,0,0,0,1.28-1.66c0-1,0-2.2.06-3.48s0-2.7,0-4.25V83.71c0-1.32,0-2.51,0-3.57s0-2-.06-2.88a1.78,1.78,0,0,0-1.16-1.77l-4-1.4,0-.8c2.77.09,5.48.14,8.06.14s5.35-.05,8.12-.14m.45-.51q-4.42.15-8.57.15c-2.75,0-5.6-.05-8.58-.15L52,74.45,56.32,76a1.32,1.32,0,0,1,.83,1.32c0,.85,0,1.81.05,2.87s0,2.25,0,3.56v31.45c0,1.55,0,3,0,4.25s0,2.43-.05,3.47a1.26,1.26,0,0,1-.93,1.2L52,125.51l.14,1.67q4.4-.12,8.58-.12t8.57.12l-.07-1.67-3.9-1.35c-.79-.24-1.19-.68-1.21-1.32,0-1,0-2.19-.06-3.45s0-2.68,0-4.23V83.56c0-1.27,0-2.44,0-3.51s0-2.06.06-3a1.2,1.2,0,0,1,.89-1.2l4.29-1.43-.14-1.67Z"/><path d="M78.87,80.54a15.33,15.33,0,0,0-1.51-3.65,4.09,4.09,0,0,0-2.17-1.59l-2.86-1,0-1.23c2.13.09,4.63.14,7.45.14s6-.05,9-.15l.1,1.24-2.94,1a2.11,2.11,0,0,0-1.08.64,1.87,1.87,0,0,0-.36,1.22,8.6,8.6,0,0,0,.36,2.14c.23.87.56,2,1,3.36l11,35.64,11.91-35.59c.47-1.43.84-2.57,1.1-3.44a7.52,7.52,0,0,0,.41-2.15,1.68,1.68,0,0,0-.38-1.19,2.34,2.34,0,0,0-1.06-.59l-2.92-.92L105.82,73c2.32.09,4.69.14,7.06.14s4.67-.05,6.85-.14l.1,1.24-3.18,1.18a3.51,3.51,0,0,0-1.89,1.39,21.26,21.26,0,0,0-1.62,3.68l-16.53,46.3-3,.28Z"/><path d="M88.55,73.29l.07.81L85.88,75a2.33,2.33,0,0,0-1.21.73,2.06,2.06,0,0,0-.41,1.37,9.14,9.14,0,0,0,.36,2.21c.24.87.57,2,1,3.37l10.74,34.89.45,1.48.49-1.46L109,82.74c.46-1.42.83-2.57,1.1-3.44a7.94,7.94,0,0,0,.42-2.22,1.89,1.89,0,0,0-.46-1.37,2.54,2.54,0,0,0-1.15-.65l-2.76-.86,0-.9c2.23.08,4.52.13,6.8.13s4.51-.05,6.62-.14l.07.82-3,1.11a3.75,3.75,0,0,0-2,1.5,20.3,20.3,0,0,0-1.65,3.73L96.43,126.6l-2.62.25L79.11,80.47a15.74,15.74,0,0,0-1.54-3.72,4.38,4.38,0,0,0-2.29-1.68l-2.71-1,0-.79c2.07.08,4.49.13,7.2.13s5.81-.05,8.82-.14M120,72.78q-3.39.15-7.08.15t-7.32-.15l.07,1.78,3.09,1a2.19,2.19,0,0,1,1,.53,1.43,1.43,0,0,1,.31,1,7.7,7.7,0,0,1-.39,2.08c-.27.86-.64,2-1.1,3.43L96.82,117.45,86.08,82.55c-.42-1.37-.75-2.49-1-3.35a8.66,8.66,0,0,1-.35-2.08,1.63,1.63,0,0,1,.3-1.06,1.87,1.87,0,0,1,1-.57l3.13-1L89,72.78c-3.19.1-6.29.15-9.28.15s-5.52-.05-7.71-.15l.07,1.67,3,1.08a3.8,3.8,0,0,1,2,1.5,14.91,14.91,0,0,1,1.48,3.58l14.83,46.77,3.33-.32,16.58-46.45A20.46,20.46,0,0,1,115,77a3.27,3.27,0,0,1,1.76-1.3l3.36-1.24L120,72.78Z"/><path d="M144.81,128.25c-7.13,0-12.73-2.5-16.63-7.45s-5.9-11.77-5.9-20.26c0-8.84,2.14-15.93,6.35-21.07s10.12-7.72,17.57-7.72c7.16,0,12.76,2.43,16.66,7.22s5.9,11.46,5.9,19.79c0,8.84-2.13,16-6.32,21.43S152.33,128.25,144.81,128.25Zm.24-53.86c-5.63,0-9.78,2.1-12.33,6.23S128.9,91,128.9,99.26c0,8.44,1.45,15,4.32,19.5A14.26,14.26,0,0,0,146,125.61c5.5,0,9.62-2.1,12.24-6.23s3.92-10.58,3.92-19.3c0-8.18-1.4-14.56-4.16-19S150.85,74.39,145.05,74.39Z"/><path d="M146.2,72c7.08,0,12.62,2.4,16.47,7.13s5.84,11.37,5.84,19.64c0,8.79-2.11,15.95-6.27,21.27s-10,8-17.43,8c-7.05,0-12.58-2.48-16.43-7.36s-5.85-11.68-5.85-20.11c0-8.78,2.12-15.82,6.3-20.91S138.82,72,146.2,72M146,125.85c5.59,0,9.78-2.13,12.45-6.33s3.95-10.68,3.95-19.44c0-8.23-1.41-14.65-4.19-19.11s-7.26-6.82-13.15-6.82c-5.72,0-9.94,2.13-12.54,6.34s-3.86,10.45-3.86,18.77c0,8.49,1.47,15.09,4.36,19.64a14.5,14.5,0,0,0,13,6.95m.21-54.35q-11.35,0-17.76,7.81T122,100.54Q122,113.42,128,121t16.82,7.54q11.44,0,17.82-8.16T169,98.76q0-12.65-5.95-20T146.2,71.5ZM146,125.36a14,14,0,0,1-12.56-6.73q-4.29-6.72-4.28-19.37,0-12.41,3.78-18.51t12.12-6.11q8.61,0,12.73,6.59t4.12,18.85q0,13.07-3.88,19.17t-12,6.11Z"/><path d="M185.54,83.06v32.1c0,3,0,5.58.07,7.61a1.47,1.47,0,0,0,1,1.55l3.94,1.3.05,1.31c-2.75-.08-5.05-.11-6.83-.11s-4.07,0-6.93.11l-.1-1.24,4.07-1.38a1.5,1.5,0,0,0,1.1-1.42c0-2.11.07-4.71.07-7.73V83.71c0-2.56,0-4.73-.07-6.44a1.56,1.56,0,0,0-1-1.54l-4.14-1.46L176.78,73c2.84.09,5.13.14,6.8.14,1,0,2-.05,3-.14L216,114.23V83.56c0-2.51,0-4.69-.07-6.48a1.49,1.49,0,0,0-1.06-1.43L211,74.38,210.91,73c2.82.09,5.14.14,6.91.14s4.09-.05,6.86-.14l.1,1.24-4.18,1.45a1.54,1.54,0,0,0-1,1.54c-.05,1.7-.07,3.81-.07,6.44v43.13l-2.54.27Z"/><path d="M224.45,73.29l.07.82-4,1.39a1.78,1.78,0,0,0-1.15,1.76c0,1.7-.07,3.87-.07,6.45v42.91l-2.17.23L186.19,83.54l-.89-1.25v32.87c0,3,0,5.61.07,7.62a1.69,1.69,0,0,0,1.2,1.77l3.79,1.25,0,.87c-2.64-.06-4.85-.1-6.58-.1s-3.95,0-6.7.11l-.07-.82,3.89-1.31a1.75,1.75,0,0,0,1.27-1.66c0-2.11.07-4.71.07-7.73V83.71c0-2.55,0-4.72-.07-6.45a1.81,1.81,0,0,0-1.16-1.77l-4-1.4,0-.8c2.71.09,4.91.14,6.54.14,1,0,1.93,0,2.91-.13l28.88,40.44.9,1.26V83.56c0-2.5,0-4.68-.07-6.5A1.73,1.73,0,0,0,215,75.41l-3.75-1.21,0-.91c2.7.09,4.93.14,6.64.14s4-.05,6.64-.14m.45-.51q-4.32.15-7.09.15t-7.15-.15l.07,1.78,4.08,1.32a1.26,1.26,0,0,1,.9,1.2q.06,2.72.06,6.48v29.9l-29-40.68q-1.59.15-3.15.15-2.6,0-7.06-.15l.07,1.67L180.88,76a1.32,1.32,0,0,1,.83,1.32c0,1.7.07,3.85.07,6.43v31.45q0,4.57-.07,7.72a1.24,1.24,0,0,1-.93,1.2l-4.26,1.43.14,1.67c3-.08,5.36-.12,7.16-.12s4.21,0,7.09.12l-.07-1.74-4.11-1.36a1.23,1.23,0,0,1-.87-1.32c0-2-.07-4.55-.07-7.6V83.83l31.09,43.55,2.91-.32V83.71c0-2.58,0-4.73.07-6.43a1.31,1.31,0,0,1,.83-1.32L225,74.45l-.14-1.67Z"/><path d="M237.08,83.06v32.1c0,3,0,5.58.07,7.61a1.45,1.45,0,0,0,1,1.55l3.94,1.3.06,1.31c-2.76-.08-5.06-.11-6.84-.11s-4.07,0-6.93.11l-.1-1.24,4.07-1.38a1.5,1.5,0,0,0,1.1-1.42c0-2.11.07-4.71.07-7.73V83.71c0-2.56,0-4.73-.07-6.44a1.54,1.54,0,0,0-1-1.54l-4.13-1.46L228.32,73c2.83.09,5.12.14,6.79.14,1,0,2-.05,3-.14l29.41,41.19V83.56c0-2.49,0-4.67-.06-6.48a1.5,1.5,0,0,0-1.07-1.43l-3.92-1.27L262.45,73c2.82.09,5.14.14,6.9.14s4.09-.05,6.86-.14l.1,1.24-4.17,1.45a1.55,1.55,0,0,0-1,1.54c-.05,1.7-.07,3.81-.07,6.44v43.13l-2.54.27Z"/><path d="M276,73.29l.07.82-4,1.39a1.79,1.79,0,0,0-1.15,1.76c0,1.7-.07,3.87-.07,6.45v42.91l-2.17.23L237.73,83.54l-.9-1.25v32.87c0,3,0,5.61.07,7.62a1.7,1.7,0,0,0,1.2,1.77l3.79,1.25,0,.87c-2.64-.06-4.85-.1-6.58-.1s-3.95,0-6.7.11l-.07-.82,3.89-1.31a1.73,1.73,0,0,0,1.27-1.66c0-2.11.07-4.71.07-7.73V83.71c0-2.55,0-4.72-.07-6.45a1.8,1.8,0,0,0-1.16-1.77l-4-1.4,0-.8c2.72.09,4.91.14,6.54.14,1,0,1.94,0,2.91-.13l28.89,40.44.89,1.26V83.56c0-2.5,0-4.68-.07-6.5a1.72,1.72,0,0,0-1.24-1.65l-3.75-1.21,0-.91c2.7.09,4.93.14,6.65.14s4-.05,6.63-.14m.46-.51q-4.33.15-7.09.15t-7.16-.15l.07,1.78,4.08,1.32a1.25,1.25,0,0,1,.9,1.2c0,1.81.07,4,.07,6.48v29.9L238.26,72.78q-1.59.15-3.15.15-2.6,0-7.05-.15l.07,1.67L232.41,76a1.31,1.31,0,0,1,.83,1.32c0,1.7.07,3.85.07,6.43v31.45q0,4.57-.07,7.72a1.24,1.24,0,0,1-.93,1.2l-4.25,1.43.14,1.67c3-.08,5.36-.12,7.15-.12s4.21,0,7.09.12l-.07-1.74-4.11-1.36a1.25,1.25,0,0,1-.87-1.32q-.06-3-.06-7.6V83.83l31.08,43.55,2.91-.32V83.71c0-2.58,0-4.73.07-6.43a1.32,1.32,0,0,1,.83-1.32l4.36-1.51-.14-1.67Z"/><path d="M316.82,126.93c-6.61-.07-12.8-.11-18.39-.11h-9.2c-3,0-6.19,0-9.37.11l-.12-1.24,4.57-1.37a1.55,1.55,0,0,0,1.22-1.42c0-1.05,0-2.21.06-3.49s0-2.7,0-4.25V83.71c0-1.32,0-2.5,0-3.57s0-2-.06-2.87a1.56,1.56,0,0,0-1.1-1.54l-4.63-1.47L279.74,73c3.22.1,6.36.15,9.33.15h9.4c5.71,0,11.82-.05,18.17-.15l.09.12-2.19,11.71-1.16.2-1.28-4.8a5.9,5.9,0,0,0-5.83-4.12H292.69V98h3.77c2.69,0,5.71,0,9-.08A1.59,1.59,0,0,0,307,96.7l1.31-5.07,1.64-.06c-.07,3.45-.11,6.06-.11,7.77s0,4.25.12,7.68l-1.65.12L307,102a1.53,1.53,0,0,0-1.43-1.23c-3.37,0-6.43-.08-9.1-.08h-3.73v14.36c0,2.86,0,5.72.08,8.5v.24h13.11a9,9,0,0,0,8.17-4.82l2.42-5,1.3-.24L317,126.8Z"/><path d="M316.46,73.28l-2.13,11.36-.77.14-1.22-4.58a6.13,6.13,0,0,0-6.07-4.31H292.44V98.21h4c2.69,0,5.71,0,9-.08a1.81,1.81,0,0,0,1.77-1.38l1.27-4.88,1.19,0c-.07,3.32-.1,5.84-.1,7.51s0,4.13.1,7.45l-1.21.09L307.18,102a1.76,1.76,0,0,0-1.66-1.4c-3.34,0-6.4-.08-9.1-.08h-4v14.61c0,2.86,0,5.72.08,8.5v.49h13.35a9.21,9.21,0,0,0,8.39-5l2.36-4.93.88-.16-.8,12.67c-6.57-.07-12.72-.11-18.28-.11h-9.2c-3,0-6,0-9.15.11l-.07-.81,4.36-1.31a1.81,1.81,0,0,0,1.41-1.67c0-1,0-2.2.05-3.48s0-2.7,0-4.25V83.71c0-1.32,0-2.51,0-3.57s0-2-.05-2.88a1.81,1.81,0,0,0-1.28-1.77L280,74.08l0-.79c3.12.09,6.17.14,9.07.14h9.4c5.67,0,11.72-.05,18-.15m.3-.5q-9.63.15-18.29.15h-9.4c-3.07,0-6.26-.05-9.59-.15l.08,1.67L284.35,76a1.31,1.31,0,0,1,.93,1.32c0,.85.05,1.81.06,2.87s0,2.25,0,3.56v31.45c0,1.55,0,3,0,4.25s0,2.43-.06,3.47a1.28,1.28,0,0,1-1,1.2l-4.76,1.43.16,1.67q4.91-.12,9.59-.12h9.2q8.47,0,18.49.12l.27-.27.85-13.49-1.74.31-2.48,5.16a8.72,8.72,0,0,1-7.94,4.69H293c-.06-2.8-.08-5.63-.08-8.5V101h3.48q4.06,0,9.09.08a1.27,1.27,0,0,1,1.2,1l1.39,5.32,2.09-.16q-.12-5.39-.12-7.91t.12-8l-2.09.08-1.35,5.24a1.33,1.33,0,0,1-1.32,1c-3.3.06-6.29.08-9,.08h-3.52V76.39h13.33a5.66,5.66,0,0,1,5.59,3.94l1.34,5,1.55-.27,2.24-12-.23-.31Z"/></svg>