<svg id="Capa_1" data-name="Capa 1" xmlns="http://www.w3.org/2000/svg" viewBox="0 0 370 200"><defs><style>.cls-1{fill:#2d2a26;}.cls-2{fill:#ffe7c3;}</style></defs><rect class="cls-1" width="370" height="200"/><path class="cls-2" d="M179.69,67.23A41,41,0,0,0,163.45,69,45.44,45.44,0,0,0,149,76.72c-.94.74-1.9,1.56-3.12,2.66s-2.07,2-2.91,2.83-1.88,1.92-2.78,2.91-1.85,2-2.73,2.95c-1.2,1.3-2.39,2.61-3.58,3.91-2.36,2.59-4.8,5.27-7.24,7.86q-1.9,2-3.83,4l-1.66,1.74c-1.69,1.76-3.61,3.76-5.55,5.65s-3.95,3.73-5.79,5.29c-2.15,1.8-4.16,3.35-6.17,4.75a64.88,64.88,0,0,1-6.58,4l-1.29.65-.43.21-.64.3-1.12.5c-1.44.61-2.55,1-3.61,1.4a55.63,55.63,0,0,1-15.3,2.93l-.54,0,0,1.32.53.06A42.78,42.78,0,0,0,79,133c1.25,0,2.5,0,3.76-.15a46.06,46.06,0,0,0,8.1-1.42,49.42,49.42,0,0,0,14.91-6.94,75.46,75.46,0,0,0,12.3-10.71c1.87-2,3.69-4,5.39-6,1.4-1.65,2.76-3.36,4.08-5l1-1.22a157.28,157.28,0,0,1,10.34-12.06A83.46,83.46,0,0,1,150.9,79.31c2.32-1.61,4.47-3,6.56-4.16l1.29-.69.4-.21.64-.32,1.1-.53.6-.27c.38-.18.77-.36,1.17-.52l.89-.37.58-.22.65-.25.57-.2.94-.32c.45-.16.89-.3,1.37-.44l.46-.14c1.15-.32,2.38-.63,3.77-.94a65,65,0,0,1,7.79-1.09l.52,0V67.28Z"/><path class="cls-2" d="M46.86,97.49c0-13.42,11.9-24.31,26.54-24.31S100,84.07,100,97.49s-11.89,24.3-26.58,24.3S46.86,110.9,46.86,97.49Zm46.73,0c0-12.4-8.25-22.9-20.19-22.9s-20.18,10.5-20.18,22.9,8.14,22.9,20.18,22.9S93.59,109.89,93.59,97.49Z"/><path class="cls-2" d="M153.69,124.9h-.24c-1.24,0-3.45-1.8-4.89-3.93,0,0-14.12-20.89-17.28-25.76l-.95-1.34L117.4,74.79h2.5a.36.36,0,0,0,.41-.36c0-.29-.16-.47-.41-.47H108.74a.45.45,0,0,0-.46.47c0,.26.29.36.7.36,1.28,0,3.37,1.7,4.89,3.87l13.18,19.58,18,26.66h-2.51c-.24,0-.41.08-.41.37a.37.37,0,0,0,.41.36h11.17c.29,0,.45-.15.45-.36S154,124.9,153.69,124.9Z"/><path class="cls-2" d="M167.84,125.47a.39.39,0,0,1-.4-.38.51.51,0,0,1,.4-.35c1.41,0,2.5-1,2.5-3.36V84.24c0-1.9-1-3.39-2.18-3.39-.48,0-.72,0-.72-.38a.51.51,0,0,1,.4-.35h36.81l1.21,5.49c0,.22-.12.28-.45.35a.48.48,0,0,1-.44-.22c0-2.38-5.61-4.22-10.73-4.22H176.11v20.64H194c2.42,0,4.32-.79,4.32-1.77,0-.29,0-.51.4-.51h.09a.39.39,0,0,1,.4.32v5.2a.38.38,0,0,1-.36.35c-.33,0-.53-.07-.53-.35,0-1.11-1.41-1.87-4.32-1.87H176.11v20.58h18.13c5.36,0,10.13-1.81,10.73-4,0-.29.12-.44.57-.44a.36.36,0,0,1,.32.38l-1.21,5.45Z"/><path class="cls-2" d="M253.33,124.75a.36.36,0,0,1-.41-.35c0-.25.08-.39.28-.39l.37,0c.68,0,1-.57,1-1.63,0-.61-1.94-5.83-5.81-15.7H228.42l-4.76,12.15c-.6,1.63-1,2.27-1,3.48l.08,1c0,.46.41.71,1.09.71.29,0,.49.11.53.36s-.12.35-.41.35h-6.21c-.28,0-.4-.1-.4-.35s.16-.36.52-.36c1.33,0,2.83-1.81,3.67-3.87L239.68,74h1.66l18.08,46.21c.89,2.06,2.38,3.87,3.71,3.87.33,0,.53.11.53.36s-.16.35-.41.35ZM238.59,80.89,229,105.18H248.2Z"/><path class="cls-2" d="M318.5,124.75,279.87,80v40.13c0,2.59,1.05,3.84,2.47,3.84a.39.39,0,0,1,.44.35.42.42,0,0,1-.44.39h-6.62a.42.42,0,0,1-.45-.39c0-.35.29-.35.73-.35,1.17,0,2.14-1.71,2.14-3.84V78.05l-3.47-4h6.94l36.89,41.94V78.58c0-2.59-1.05-3.8-2.42-3.8a.39.39,0,1,1,0-.78h6.61a.43.43,0,0,1,.45.39c0,.35-.32.39-.73.39-1.21,0-2.18,1.71-2.18,3.8v46.17Z"/></svg>