<svg id="Capa_1" data-name="Capa 1" xmlns="http://www.w3.org/2000/svg" viewBox="0 0 370 200"><defs><style>.cls-1{fill:#a7a8a9;}</style></defs><rect class="cls-1" x="289.4" y="77.47" width="19.98" height="43.64"/><path class="cls-1" d="M47.5,108.79q9.81,4.69,18.52,4.69A17.81,17.81,0,0,0,73.63,112q3.16-1.47,3.16-3.56c0-1.13-.75-2.13-2.24-3a40,40,0,0,0-8.65-3q-8.94-2.28-13.63-5T47.5,90.39q0-5.44,7.43-9.18c5-2.49,11.52-3.74,19.67-3.74A70.41,70.41,0,0,1,92.08,79.8V90.2a35,35,0,0,0-15.4-4,16.33,16.33,0,0,0-6.34,1.12c-1.78.76-2.68,1.66-2.68,2.73s.73,1.93,2.19,2.69a36.83,36.83,0,0,0,7.92,2.43q9.56,2.19,14.49,5t4.93,7.66q0,6.08-8.49,10.36T68,122.53a79.28,79.28,0,0,1-20.47-2.94Z"/><path class="cls-1" d="M133.43,77.47q15.4,0,24.3,6t8.89,16.33q0,10.39-9,16.57t-23.21,6.18q-14.79,0-22.89-6.43t-8.1-16a19.29,19.29,0,0,1,4-11.89,24.29,24.29,0,0,1,11.09-8,41.25,41.25,0,0,1,14.91-2.74m2.13,9.21q-6,0-9.14,3.53c-2.11,2.36-3.16,5.57-3.16,9.67s1,7.4,3.07,9.77a10.7,10.7,0,0,0,8.5,3.55,10.86,10.86,0,0,0,8.59-3.66q3.22-3.66,3.23-9.76,0-6.32-3.26-9.71a10.46,10.46,0,0,0-7.83-3.39"/><polygon class="cls-1" points="174.74 77.47 194.6 77.47 194.6 112.2 221.87 112.2 221.87 121.12 174.74 121.12 174.74 77.47"/><polygon class="cls-1" points="230.82 77.47 279.24 77.47 279.24 86.27 250.61 86.27 250.61 94.31 277.28 94.31 277.28 102.82 250.61 102.82 250.61 112.2 279.24 112.2 279.24 121.12 230.82 121.12 230.82 77.47"/><path class="cls-1" d="M318,77.47A4.49,4.49,0,1,1,313.53,82,4.45,4.45,0,0,1,318,77.47Zm0,.68a3.8,3.8,0,0,0,0,7.59A3.66,3.66,0,0,0,321.67,82,3.71,3.71,0,0,0,318,78.15Zm-.84,6.4h-.8v-5a9.11,9.11,0,0,1,1.42-.11,2.58,2.58,0,0,1,1.57.38,1.19,1.19,0,0,1,.46,1,1.23,1.23,0,0,1-1,1.21v0c.44.07.75.47.87,1.2a4.34,4.34,0,0,0,.29,1.24h-.84a3.77,3.77,0,0,1-.33-1.27,1,1,0,0,0-1.1-.87h-.55Zm0-2.77h.58c.66,0,1.22-.24,1.22-.85,0-.45-.32-.88-1.22-.88a3.91,3.91,0,0,0-.58,0Z"/></svg>